<?xml version="1.0" encoding="utf-8"?>
<!-- Generator: Adobe Illustrator 16.0.0, SVG Export Plug-In . SVG Version: 6.00 Build 0)  -->
<!DOCTYPE svg PUBLIC "-//W3C//DTD SVG 1.1//EN" "http://www.w3.org/Graphics/SVG/1.1/DTD/svg11.dtd">
<svg version="1.1" id="Layer_1" xmlns="http://www.w3.org/2000/svg" xmlns:xlink="http://www.w3.org/1999/xlink" x="0px" y="0px"
	 width="400px" height="320.998px" viewBox="0 0 400 320.998" enable-background="new 0 0 400 320.998" xml:space="preserve">
<rect fill="#3EBFB7" width="400" height="272.986"/>
<text transform="matrix(1 0 0 1 6.1455 130.5625)"><tspan x="0" y="0" fill="#FFFFFF" font-family="'Otsutome_font-Bold'" font-size="133.6929">CHEAP</tspan><tspan x="55.752" y="118.838" fill="#FFFFFF" font-family="'Otsutome_font-Bold'" font-size="133.6929">OWL!</tspan></text>
<g>
	<path fill="#FFFFFF" d="M91.793,216.697c-0.075-0.227,0.176-0.573,0.753-1.041c0.576-0.466,1.147-0.795,1.714-0.986
		c0.829-0.277,1.739-0.448,2.728-0.508c0.988-0.059,1.602,0.02,1.842,0.23c0.036-0.013,0.683,0.286,1.936,0.893
		c1.254,0.608,1.919,0.896,1.996,0.872c-0.153-0.326-0.35-0.848-0.59-1.565c-0.152-0.452-0.372-1.166-0.657-2.141
		c-0.286-0.975-0.513-1.707-0.677-2.197c-0.394-1.168-0.793-2.043-1.196-2.621c-1.397,0.093-2.882,0.047-4.457-0.139
		c-1.572-0.184-2.663-0.615-3.269-1.293c-2.017-1.002-3.335-2.426-3.957-4.274c-0.787-2.34-0.535-4.964,0.752-7.875
		c1.289-2.91,2.986-5.099,5.098-6.565c-0.939-3.168-1.335-4.778-1.185-4.829l0.077,0.038c0.525-0.555,1.053-0.922,1.582-1.101
		c0.98-0.328,1.953-0.152,2.919,0.531c0.963,0.683,1.675,1.703,2.132,3.062l0.19,0.565l0.322,0.585l0.604-0.078
		c0.956-0.278,2.658-0.021,5.11,0.771c2.448,0.792,4.241,1.689,5.377,2.694c-0.123,1.134-0.543,1.819-1.26,2.061
		s-2.134-0.069-4.25-0.932s-3.546-1.21-4.287-1.046l-0.735,0.247l0.514,1.528c0.368,1.094,0.907,2.635,1.617,4.621
		c0.709,1.986,1.25,3.526,1.617,4.619l0.515,1.528l1.962-0.346c6.425-1.993,10.927,0.839,13.503,8.496
		c0.686,2.037,0.51,3.985-0.522,5.845c-1.035,1.859-2.7,3.176-5.001,3.949c-0.905,0.305-1.868,0.503-2.887,0.594l-2.095,0.326
		l-0.281,0.852c0.102,0.554-0.011,1.095-0.335,1.623c-0.326,0.529-0.735,0.878-1.226,1.042c-0.528,0.179-1.063,0.084-1.604-0.279
		c-0.025-0.076-0.052-0.182-0.078-0.319c-0.025-0.139-0.051-0.246-0.075-0.32c-0.355-1.057-1.007-1.93-1.951-2.619
		c-0.947-0.689-1.917-1.171-2.913-1.445c-0.994-0.274-2.07-0.605-3.229-0.992c-1.162-0.386-2.019-0.78-2.572-1.182
		c-0.24-0.087-0.662-0.156-1.265-0.204c-0.605-0.049-1.124-0.127-1.559-0.231C92.105,217.032,91.856,216.886,91.793,216.697z
		 M92.313,199.706c0.203,0.604,0.589,1.187,1.156,1.752c0.454,0.352,1.154,0.745,2.099,1.184c0.945,0.438,1.681,0.568,2.21,0.391
		c0.188-0.064,0.327-0.151,0.414-0.266c0.089-0.114,0.142-0.268,0.161-0.464c0.017-0.194,0.017-0.383-0.003-0.565
		s-0.076-0.416-0.171-0.698c-0.096-0.283-0.178-0.528-0.248-0.736c-0.068-0.206-0.161-0.481-0.275-0.819
		c-0.114-0.341-0.203-0.604-0.267-0.792c-0.8-2.378-1.504-4.344-2.111-5.903c-1.02,0.846-1.865,1.919-2.541,3.216
		C92.06,197.303,91.918,198.536,92.313,199.706z M108.651,216.632c0.278,0.83,1.174,0.99,2.683,0.482
		c1.132-0.38,1.797-0.896,1.995-1.553l0.414-0.643c0.074-0.15,0.145-0.258,0.207-0.321l0.076-0.152l0.13-0.169
		c0.076-0.151,0.068-0.737-0.022-1.758c-0.091-1.018-0.219-1.772-0.384-2.264c-0.088-0.264-0.159-0.408-0.21-0.433
		c-0.986-1.81-1.853-3.01-2.596-3.599c-0.253-0.377-0.729-0.605-1.427-0.686c-0.698-0.08-1.37-0.012-2.01,0.203
		c-0.981,0.331-1.453,0.805-1.413,1.421l2.554,8.715C108.588,216.191,108.588,216.444,108.651,216.632z"/>
</g>
<rect y="272.986" fill="#EF5725" stroke="#EF5725" stroke-width="0.7905" stroke-miterlimit="10" width="400" height="48.012"/>
<text transform="matrix(1 0 0 1 8.7305 302.0449)" fill="#FFFFFF" stroke="#FFFFFF" stroke-miterlimit="10" font-family="'SegoePrint-Bold'" font-size="20.3064">Track Grocery Deals Under $5 in PEI</text>
</svg>
