<?xml version="1.0" encoding="utf-8"?>
<!-- Generator: Adobe Illustrator 16.0.0, SVG Export Plug-In . SVG Version: 6.00 Build 0)  -->
<!DOCTYPE svg PUBLIC "-//W3C//DTD SVG 1.1//EN" "http://www.w3.org/Graphics/SVG/1.1/DTD/svg11.dtd">
<svg version="1.1" id="Layer_1" xmlns="http://www.w3.org/2000/svg" xmlns:xlink="http://www.w3.org/1999/xlink" x="0px" y="0px"
	 width="396.039px" height="548.783px" viewBox="0 0 396.039 548.783" enable-background="new 0 0 396.039 548.783"
	 xml:space="preserve">
<rect x="-231.023" y="-174.313" fill-rule="evenodd" clip-rule="evenodd" fill="#F8D7AB" width="861.086" height="864.728"/>
<image overflow="visible" width="1799" height="1199" xlink:href="../bright-rain@1000x666.6666666666666px.png"  transform="matrix(0.6416 0 0 0.6416 -343.6748 -160.8608)">
</image>
<g>
	<path fill-rule="evenodd" clip-rule="evenodd" fill="#DFA775" d="M96.285,655.785c-3.518,0-7.035-0.04-10.552-0.062
		c-0.057-14.504-0.899-28.985-1.713-43.468c0.864-3.271-0.415-6.473-0.47-9.725c-0.315-19.007-1.426-37.994-2.396-56.984
		c-1.152-22.611-1.966-45.231-2.856-67.849c-0.627-15.926-1.125-31.854-1.723-47.779c-0.047-1.252-0.417-2.496-0.639-3.743
		c-0.306-10.825-0.291-21.664-1.014-32.469c-0.641-9.575-0.902-19.139-0.775-28.718c3.901,0.633,7.724,1.674,11.771,1.559
		c0.357,11.909,1.342,23.797,1.774,35.707c0.294,8.095,1.045,16.208,0.97,24.326c-0.03,3.223,1.826,4.123,5.228,3.955
		c1.189-0.037,2.38-0.075,3.57-0.111c8.581,0.016,17.16,0.032,25.739,0.049c1.735,0.019,3.472,0.041,5.205,0.063
		c2.318-0.021,4.64-0.041,6.959-0.06c1.141,0,2.284,0,3.426,0c8.881,0,17.762,0.003,26.642,0.004
		c1.703,0.015,3.402,0.028,5.103,0.044c10.585-0.005,21.168-0.01,31.75-0.013c10.198-0.011,20.398,0.013,30.596-0.056
		c2.308-0.015,4.829,0.567,6.791-1.064c2.267,1.5,4.969,1.013,7.539,1.117c10.196-0.008,20.394,0.016,30.59-0.053
		c2.309-0.015,4.827,0.567,6.789-1.064c2.268,1.5,4.97,1.013,7.54,1.117c12.333,0,24.666,0,36.999,0
		c2.201-0.311,2.602-1.589,2.723-3.179c0.55-7.213,1.432-14.395,1.336-21.65c-0.17-13.019,2.182-25.997,1.165-39.041
		c4.524,0.277,8.721-1.526,13.219-1.405c-0.33,4.7-0.83,9.396-0.96,14.102c-0.588,21.189-1.756,42.364-2.642,63.546
		c-0.831,19.914-1.733,39.826-2.592,59.74c-0.912,21.182-1.652,42.365-2.725,63.544c-0.879,17.378-1.259,34.773-1.864,52.16
		c-0.039,1.086-0.082,2.174-0.193,3.258c-1.169,11.39-1.043,22.804-0.902,34.218C255.889,655.795,176.088,655.792,96.285,655.785z
		 M150.932,538.158c5.015,0.04,10.032,0.027,15.043,0.134c3.799,0.08,7.4-0.036,10.066-2.787c1.555-1.607,3.417-1.497,4.95,0.05
		c2.499,2.528,5.804,2.86,9.435,2.747c4.356-0.133,8.72-0.098,13.08-0.136c4.525-0.016,9.051-0.033,13.573-0.05
		c8.658,0.269,17.314,0.313,25.971-0.03c5.418,0.01,10.836,0.021,16.252,0.031c7.039,0.058,14.236,0.883,21.068-0.069
		c5.653-0.788,10.85-0.168,16.298,0.153c5.906,0.347,11.873,0.021,17.813-0.013c2.636,0.025,5.277,0,7.912,0.088
		c3.31,0.114,4.806-1.373,5.216-3.852c0.148-0.891,0.14-1.804,0.173-2.707c0.343-9.572,0.708-19.159,0.99-28.715
		c0.475-16.089,2.287-32.152,1.782-48.264c-0.074-2.342,0.031-4.671,0.593-7.02c0.698-2.938-0.319-3.764-4.147-4.053
		c-1.309-0.1-2.637-0.04-3.955-0.04c-74.985-0.001-149.973-0.003-224.958,0.002c-8.11,0.001-8.104,0.021-8.101,6.469
		c0.008,13.746,1.188,27.467,1.725,41.197c0.351,9.018,0.426,18.066,1.048,27.082c0.383,5.585,1.507,11.132,1.222,16.757
		c-0.119,2.337,1.531,3.198,4.162,3.128c1.759-0.048,3.517-0.071,5.274-0.104c12.68,0.01,25.358,0.021,38.037,0.031
		C144.612,538.179,147.771,538.168,150.932,538.158z M96.711,631.727c2.648,5.426,6.895,6.904,13.166,6.673
		c4.588-0.171,9.228,0.334,13.722-0.921c0.801-0.224,1.761-0.218,2.614-0.125c20.565,2.214,41.223,0.516,61.83,0.991
		c7.903,0.183,15.818-0.017,23.727,0.052c3.542,0.03,6.863-1.062,10.15-1.368c3.014-0.279,6.444,1.487,10.061,1.404
		c8.122-0.187,16.262-0.189,24.385,0c3.706,0.087,6.64-1.624,9.806-2.136c2.701-0.438,5.836,2.232,9.615,2.168
		c14.276-0.24,28.561-0.128,42.843-0.147c2.801,0.146,4.123-0.989,3.92-3.244c-0.676-7.439,1.621-14.743,1.353-22.182
		c-0.528-14.651,1.905-29.243,1.508-43.912c-0.11-4.096,1.381-8.215,1.083-12.399c-0.271-3.769-0.503-4.021-4.883-4.225
		c-1.313-0.062-2.635-0.018-3.957-0.018c-71.23,0-142.46,0-213.688,0.002c-8.749,0-8.571,0.014-8.77,7.043
		c-0.443,15.748,2.144,31.425,1.47,47.173c-0.056,1.276,0.044,2.547,1.245,3.537C92.469,617.123,93.002,624.127,96.711,631.727z"/>
	<path fill-rule="evenodd" clip-rule="evenodd" fill="#F16763" d="M74.148,364.989c3.901,0.633,7.724,1.674,11.771,1.557
		c13-0.189,23.194-8.895,24.19-17.801c0.033-7.406,0.136-14.812,0.083-22.218c-0.077-11.013-0.265-22.026-0.403-33.039
		c-3.067-0.073-6.135-0.148-9.202-0.223c-11.205,0.076-22.409,0.146-33.612,0.229c-6.394,0.049-6.439,0.061-6.451,5.481
		c-0.031,12.131,0.003,24.262-0.024,36.394c-0.003,1.979,0.326,3.988-0.494,5.925c0.753,1.73,0.474,3.534,0.521,5.308
		c0.183,6.718,3.751,11.965,10.11,16.031C71.827,363.396,72.979,364.203,74.148,364.989z"/>
	<path fill-rule="evenodd" clip-rule="evenodd" fill="#F1F2F2" d="M109.789,293.488c0.139,11.013,0.326,22.026,0.403,33.039
		c0.053,7.406-0.05,14.812-0.084,22.217c0.462,1.191,0.915,2.384,1.391,3.573c3.447,8.633,12.923,14.475,23.711,14.623
		c10.715,0.147,20.232-5.513,23.939-14.259c0.504-1.191,0.909-2.412,1.361-3.619c0.013-18.467,0.024-36.934,0.037-55.4
		C143.629,293.604,126.71,293.546,109.789,293.488z"/>
	<path fill-rule="evenodd" clip-rule="evenodd" fill="#F16763" d="M160.548,293.662c-0.013,18.467-0.024,36.934-0.037,55.399
		c0.312,0.856,0.616,1.715,0.938,2.571c4.81,12.853,21.477,18.31,35.473,12.642c7.903-3.199,11.403-8.714,13.432-15.26
		c0.026-6.29,0.105-12.58,0.068-18.868c-0.067-12.217-0.2-24.433-0.307-36.648C193.594,293.552,177.07,293.607,160.548,293.662z"/>
	<path fill-rule="evenodd" clip-rule="evenodd" fill="#F16763" d="M310.391,293.536c-16.517,0.012-33.035,0.023-49.553,0.035
		c-0.074,1.985-0.205,3.971-0.214,5.957c-0.052,16.809-0.084,33.618-0.122,50.428c1.042,0.775,1.169,1.906,1.679,2.894
		c3.972,7.723,10.563,12.807,21.071,13.455c11.134,0.688,19.527-3.057,24.916-11.216c0.934-1.414,1.053-3.173,2.672-4.293
		c-0.047-4.501-0.106-9.003-0.14-13.505C310.592,322.706,310.493,308.121,310.391,293.536z"/>
	<path fill-rule="evenodd" clip-rule="evenodd" fill="#F1F2F2" d="M260.502,349.956c0.038-16.81,0.07-33.619,0.122-50.428
		c0.009-1.986,0.14-3.972,0.214-5.957c-16.908-0.024-33.817-0.049-50.726-0.074c0.108,12.217,0.241,24.433,0.309,36.649
		c0.037,6.288-0.042,12.578-0.068,18.866c1.05,1.018,1.001,2.354,1.502,3.531c3.519,8.255,12.445,13.693,22.77,13.892
		c11.015,0.213,20.071-4.634,24.207-12.968C259.41,352.304,259.947,351.125,260.502,349.956z"/>
	<path fill-rule="evenodd" clip-rule="evenodd" fill="#F1F2F2" d="M310.391,293.536c0.103,14.585,0.201,29.17,0.31,43.755
		c0.033,4.502,0.093,9.004,0.14,13.508c4.229,8.917,11.39,14.878,23.512,15.84c4.524,0.277,8.721-1.526,13.219-1.405
		c1.461-2.079,3.765-3.53,5.773-5.189c4.905-4.051,7.427-8.955,7.464-14.61c0.098-15.576,0.063-31.154,0.019-46.731
		c-0.013-5.064-0.237-5.266-6.24-5.271C339.853,293.419,325.121,293.495,310.391,293.536z"/>
	<path fill-rule="evenodd" clip-rule="evenodd" fill="#C3D94E" d="M314.479,538.188c2.637,0.025,5.278,0,7.913,0.088
		c3.31,0.114,4.806-1.373,5.216-3.852c0.148-0.891,0.14-1.804,0.173-2.707c0.343-9.572,0.708-19.159,0.99-28.715
		c0.475-16.089,2.287-32.152,1.782-48.264c-0.074-2.342,0.031-4.671,0.593-7.02c0.698-2.938-0.319-3.764-4.147-4.053
		c-1.309-0.1-2.637-0.04-3.955-0.04c-74.985-0.001-149.973-0.003-224.958,0.002c-8.11,0.001-8.104,0.021-8.101,6.469
		c0.008,13.746,1.188,27.467,1.725,41.197c0.351,9.018,0.426,18.066,1.048,27.082c0.383,5.585,1.507,11.132,1.222,16.757
		c-0.119,2.337,1.531,3.198,4.162,3.128c1.759-0.048,3.517-0.071,5.272-0.104c-4.802-5.024-8.6-10.254-8.23-17.099
		c0.426-7.914,4.635-11.768,14.448-12.173c2.41-0.102,4.818-0.028,6.943-1.186c0.56-4.722,5.068-6.758,9.11-9.126
		c0.703-0.41,1.386-1.117,2.248-0.541c2.223,1.486,2.894-0.11,4.014-1.17c2.409-2.275,4.61-4.976,9.143-3.99
		c2.246-6.182,6.667-8.896,14.232-9.036c2.933-0.052,5.521,1.066,8.358,1.206c0.337-2.098,0.676-4.197,1.047-6.5
		c1.71,0.86,3.181,1.967,5.386,0.532c1.428-0.929,3.582-1.271,5.477-1.497c2.346-0.281,3.236,0.949,2.078,2.627
		c-1.666,2.406-4.587,3.738-7.067,5.445c1.294,3.038,4.869,4.437,7.187,6.743c0.816,0.813,2.163,0.783,2.696-0.17
		c2.381-4.243,8.037-4.555,11.947-6.938c-2.297-1.912-5.028-3.535-6.193-6.209c-0.424-0.97-1.533-2.011-0.266-2.959
		c1.167-0.877,2.483-0.032,3.708,0.205c3.167,0.608,4.403,3.484,7.394,4.318c0.093-0.333,0.1-0.709,0.305-0.983
		c0.241-0.321,0.597-0.163,0.467,0.281c-0.075,0.256-0.55,0.432-0.843,0.646c0.598,1.986,0.608,3.977,0.039,5.969
		c-0.01,0.356-0.144,0.751,0,1.06c0.294,0.643,1.139,0.688,1.235,0.096c0.329-2.005,1.611-2.68,3.979-2.722
		c9.268-0.165,15.883,4.985,15.905,12.587c0.004,1.791-0.241,3.585-0.459,5.369c-0.107,0.866-0.718,1.805,0.686,2.3
		c1.119,0.395,2.128-0.068,3.098-0.485c2.034-0.873,1.733-2.229,1.229-3.718c-0.935-2.761-0.74-5.354,2.095-7.417
		c0.258-1.249,1.163-1.978,2.645-2.249c0.225-1.69,1.797-2.327,3.42-2.839c1.811-0.572,3.646-1.072,5.143-2.144
		c-2.158-1.787-4.737-3.271-6.067-5.658c-0.621-1.117-1.899-2.34-0.462-3.449c1.342-1.035,3.05-0.207,4.275,0.38
		c2.171,1.04,4.109,2.406,6.015,3.558c1.481-0.825,0.988-2.644,3.248-2.761c-1.052,2.567-1.744,5.021-1.086,7.575
		c4.597-0.15,9.042,0.365,13.142,2.185c3.65,1.621,6.042,3.839,4.812,7.588c0.724,0,1.45-0.003,2.173-0.003
		c2.421-0.076,2.481-1.79,2.873-3.059c1.572-5.09,6.214-6.988,11.823-7.755c2.533-0.346,5.161-0.217,7.745-0.303
		c-0.002-2.022-0.002-4.045-0.002-6.916c1.145,1.664,1.656,2.634,2.947,1.623c1.729-1.355,3.226-2.938,5.497-3.738
		c1.209-0.425,2.563-0.861,3.675-0.055c1.229,0.893,0.545,2.042-0.117,2.92c-1.36,1.809-2.91,3.521-4.382,5.271
		c-0.003,1.226,0.788,2.079,2.101,2.44c6.576,1.813,9.084,6.193,10.604,11.222c1.954-1.392,3.815-2.888,5.901-4.131
		c1.318-0.784,3.107-1.906,4.628-0.738c1.425,1.095,0.374,2.657-0.17,3.992c-1.227,2.995-4.326,4.825-6.569,7.189
		c1.653,0.478,3.302,0.971,4.962,1.432c11.16,3.096,14.883,9.196,12.006,18.545C323.763,529.665,319.238,533.928,314.479,538.188z"
		/>
	<path fill-rule="evenodd" clip-rule="evenodd" fill="#F16763" d="M304.239,498.205c-2.103-1.3-2.042-4.049-5.289-5.093
		c-0.116,2.855,1.821,4.812,3.165,6.934c0.302,2.066,0.602,4.134,1.016,6.985c1.138-2.52,3.485-2.622,5.488-3.259
		c1.652,0.475,3.301,0.968,4.961,1.429c11.16,3.096,14.883,9.196,12.006,18.545c-1.823,5.919-6.348,10.183-11.106,14.442
		c-5.938,0.033-11.905,0.359-17.812,0.013c-5.448-0.321-10.645-0.941-16.298-0.153c-6.832,0.952-14.029,0.127-21.068,0.069
		c-2.156-1.964-4.399-3.865-6.436-5.909c-1.604-1.607-2.717-1.174-4.042,0.207c-1.857,1.935-3.841,3.786-5.771,5.673
		c-8.659,0.342-17.315,0.297-25.974,0.028c-1.229-2.768-3.893-4.641-6.087-7.147c-2.688,2.587-5.086,4.893-7.485,7.197
		c-4.361,0.038-8.725,0.003-13.081,0.136c-3.631,0.113-6.936-0.219-9.435-2.747c-1.533-1.547-3.396-1.657-4.95-0.05
		c-2.666,2.751-6.268,2.867-10.066,2.787c-5.011-0.106-10.028-0.094-15.043-0.134c-4.651-4.115-4.651-4.115-9.479,0.03
		c-12.679-0.01-25.357-0.021-38.039-0.031c-4.802-5.024-8.6-10.254-8.23-17.099c0.426-7.914,4.635-11.768,14.448-12.173
		c2.41-0.102,4.818-0.028,6.943-1.186c3.308-0.839,7.479-3.132,9.747-2.218c4.9,1.977,7.261-2.357,11.237-1.791
		c1.579,0.224,1.623-1.289,1.814-2.375c0.5-2.825,1.136-5.631,1.716-8.444c2.246-6.181,6.667-8.896,14.232-9.035
		c2.933-0.052,5.521,1.066,8.358,1.206c2.097,1.813,4.573,0.72,6.92,0.61c1.294,3.035,4.869,4.434,7.187,6.74
		c0.816,0.813,2.163,0.783,2.696-0.17c2.381-4.243,8.037-4.555,11.947-6.938c1.537,0.421,3.073,0.844,4.61,1.267
		c-0.01,0.357-0.144,0.752,0,1.061c0.294,0.643,1.139,0.688,1.235,0.096c0.329-2.005,1.611-2.68,3.979-2.722
		c9.268-0.165,15.883,4.985,15.905,12.587c0.004,1.791-0.241,3.585-0.459,5.369c-0.107,0.866-0.718,1.805,0.686,2.3
		c1.119,0.395,2.128-0.068,3.098-0.485c2.034-0.873,1.733-2.229,1.229-3.718c-0.935-2.761-0.74-5.354,2.095-7.417
		c1.718,3.909,1.917,8.454,6.809,11.037c1.399,0.739,2.504,1.719,3.047,3.956c0.929-3.295,1.563-5.541,2.968-7.574
		c1.471-1.072,2.688-2.295,3.369-3.838c0.368-0.35,0.921-0.718,0.116-1.095c-0.138-0.064-0.577,0.309-0.877,0.479
		c-2.541,0.295-3.128,2.388-4.772,3.508c-1.523-3.624-4.116-6.579-8.015-8.723c0.225-1.69,1.797-2.327,3.42-2.839
		c1.811-0.572,3.646-1.072,5.143-2.144c1.262,0.313,2.771,0.367,3.738,0.99c3.152,2.029,1.303-1.103,2.185-1.346
		c4.597-0.15,9.042,0.365,13.142,2.185c3.65,1.621,6.042,3.839,4.812,7.588c0.483,0.54,1.005,1.042,1.915,1.061
		c0.274,1.596,0.678,3.185,0.775,4.789c0.074,1.217-0.238,2.453-0.378,3.682c2.471-0.452,4.192,0.22,5.096,2.23
		c0.22,0.488,0.426,0.333,0.784-0.146c3.603-4.829,10.419-8.492,8.136-15.929c-5.524,1.139-7.805,4.706-9.71,8.307
		c-2.553-0.271-2.355-2.98-4.807-2.849c0.119-0.382,0.239-0.764,0.359-1.147c2.423-0.076,2.483-1.79,2.875-3.059
		c1.572-5.09,6.214-6.988,11.823-7.755c2.533-0.346,5.161-0.217,7.745-0.303l-0.003,0.055c-0.266,0.862-0.714,2.167,0.246,2.434
		c1.683,0.466,1.878-0.973,2.238-1.958c1.712-0.475,3.424-0.95,5.137-1.424c-0.003,1.225,0.788,2.078,2.101,2.439
		c6.576,1.813,9.084,6.193,10.604,11.222C304.68,497.731,304.483,497.98,304.239,498.205z M160.698,498.592
		c0.1,0.257,0.196,0.516,0.295,0.772c0.232,0.535,0.209,1.606,1.229,1.096c0.771-0.385,0.031-1.161-0.596-1.619
		C161.316,498.757,161.006,498.675,160.698,498.592z M193.527,499.372c1.015,0.5,0.987-0.568,1.204-1.108
		c0.09-0.237,0.181-0.474,0.271-0.71c-0.282,0.078-0.563,0.155-0.846,0.231C193.503,498.22,192.746,498.986,193.527,499.372z
		 M174.291,508.781c-1.396,1.456,0.178,2.323,1.666,2.724c2.914,0.785,6.613-1.895,5.99-4.431c-0.342-1.399-0.829-2.747-0.657-4.187
		c2.591,2.225,5.111,4.534,8.965,5.318c0.439,0.878,0.639,2.349,2.126,1.93c1.371-0.385,0.598-1.692,0.335-2.625
		c0.039-1.294,0.077-2.586,0.114-3.881c0.149-0.594,0.616-1.382-0.419-1.589c-0.64-0.129-0.762,0.6-0.805,1.094
		c-3.063-1.043-4.41-3.996-7.75-4.728c-1.245-0.273-2.633-0.774-3.628,0.239c-0.727,0.741-0.219,1.718-0.039,2.591
		C177.116,503.156,176.564,506.412,174.291,508.781z M162.884,508.723c-0.218,0.832-0.78,2.004,0.308,2.333
		c1.059,0.321,0.943-0.84,1.065-1.483c5.744-1.816,10.507-4.395,11.648-10.186c-5.108-1.083-7.73,1.668-10.517,4.13
		c-3.913-1.491-2.754,0.724-2.47,2.297C162.905,506.783,162.896,507.752,162.884,508.723z"/>
	<path fill-rule="evenodd" clip-rule="evenodd" fill="#C2D94F" d="M334.352,366.638c-12.122-0.962-19.282-6.923-23.512-15.84
		c-1.619,1.117-1.738,2.876-2.672,4.29c-5.389,8.159-13.782,11.903-24.916,11.216c-10.508-0.648-17.1-5.732-21.071-13.455
		c-0.51-0.987-0.637-2.118-1.679-2.894c-0.555,1.17-1.092,2.349-1.671,3.512c-4.136,8.334-13.192,13.181-24.207,12.968
		c-10.324-0.198-19.251-5.637-22.77-13.892c-0.501-1.178-0.452-2.514-1.502-3.531c-2.028,6.548-5.528,12.063-13.432,15.262
		c-13.996,5.668-30.663,0.211-35.473-12.642c-0.321-0.856-0.626-1.715-0.938-2.571c-0.452,1.208-0.857,2.429-1.361,3.62
		c-3.707,8.746-13.225,14.406-23.939,14.259c-10.788-0.148-20.264-5.99-23.711-14.623c-0.476-1.189-0.929-2.382-1.391-3.573
		c-0.995,8.907-11.189,17.612-24.189,17.802c0.357,11.911,1.342,23.799,1.774,35.709c0.294,8.095,1.045,16.208,0.97,24.326
		c-0.03,3.223,1.826,4.123,5.228,3.955c-0.079-12.507-0.085-25.016-0.269-37.521c-0.078-5.306-0.029-10.523,3.535-15.235
		c0.835-1.104,1.081-2.38,0.956-3.668c-0.264-2.727,1.554-3.386,4.457-3.341c5.279,0.086,10.563-0.014,15.843,0.028
		c4.906,0.04,4.956,0.071,5.769,4.399c0.347,1.843,1.422,3.415,2.353,5.047c1.228,2.157,2.09,4.363,2.075,6.79
		c-0.088,14.498-0.142,28.998-0.204,43.5c2.318-0.021,4.64-0.041,6.956-0.06c-0.066-12.14-0.021-24.28-0.247-36.418
		c-0.098-5.326,0.235-10.465,3.547-15.24c1.076-1.554,1.719-3.339,1.629-5.21c-0.1-2.13,1.337-2.832,3.712-2.817
		c5.498,0.032,10.997-0.03,16.497,0.008c4.954,0.035,4.819,0.096,5.912,4.384c0.534,2.102,1.563,4.137,2.571,6.133
		c0.939,1.853,1.804,3.661,1.788,5.727c-0.106,14.494-0.163,28.987-0.236,43.482c10.585-0.005,21.168-0.01,31.75-0.013
		c-0.279-5.412-0.476-10.823,0.107-16.231c-0.074-7.765,0.026-15.535-0.284-23.295c-0.199-4.985,0.503-9.684,3.539-14.081
		c0.967-1.399,1.827-2.935,1.703-4.614c-0.19-2.561,1.63-2.903,4.133-2.876c5.92,0.064,11.848,0.146,17.76-0.03
		c3.499-0.104,5.182,0.641,5.104,3.838c-0.062,2.354,1.961,4.354,3.036,6.516c0.91,1.833,2.01,3.581,1.985,5.666
		c-0.119,10.294-0.166,20.587-0.237,30.88c0.501,4.396,0.497,8.789,0.008,13.185l0.532-0.076c2.267,1.5,4.969,1.013,7.54,1.117
		c-0.265-5.413-0.493-10.828,0.121-16.238c-0.071-7.403,0.025-14.813-0.268-22.209c-0.219-5.51,0.249-10.792,3.81-15.653
		c0.893-1.219,1.566-2.618,1.417-4.119c-0.259-2.583,1.624-2.9,4.116-2.873c5.919,0.06,11.846,0.146,17.761-0.032
		c3.508-0.105,5.16,0.656,5.1,3.841c-0.044,2.352,1.954,4.358,3.055,6.513c0.937,1.828,1.992,3.581,1.968,5.666
		c-0.126,10.294-0.17,20.588-0.241,30.88c0.501,4.396,0.497,8.789,0.008,13.185l0.532-0.076c2.268,1.5,4.97,1.013,7.54,1.117
		c-0.264-5.413-0.494-10.828,0.122-16.238c-0.072-7.405,0.026-14.816-0.27-22.218c-0.217-5.51,0.247-10.793,3.829-15.65
		c0.896-1.213,1.587-2.612,1.427-4.117c-0.278-2.6,1.634-2.892,4.114-2.868c5.921,0.057,11.85,0.15,17.766-0.035
		c3.533-0.111,5.138,0.694,5.089,3.855c-0.036,2.352,1.963,4.356,3.057,6.515c0.927,1.83,1.976,3.59,1.951,5.676
		c-0.124,10.295-0.171,20.591-0.243,30.887c0.479,4.36,0.464,8.723,0.013,13.082c0.049,0.371,0.099,0.741,0.145,1.112
		c2.201-0.311,2.602-1.589,2.723-3.179c0.55-7.213,1.432-14.395,1.336-21.65C333.017,392.661,335.368,379.682,334.352,366.638z"/>
	<path fill-rule="evenodd" clip-rule="evenodd" fill="#FEE99D" d="M165.436,430.48c0.478-0.815,1.03-1.607,1.424-2.449
		c2.852-6.077,1.108-9.726-6.099-12.859c1.972-1.513,4.819-2.493,4.997-5.185c-2.729-1.09-4.218,1.048-6.354,1.178
		c-1.312,0.078-1.324,0.302-1.822,3.477c-4.672-1.08-8.483,0.859-12.409,2.4c-1.844,0.035-3.512-1.154-5.435-0.733
		c-0.554,1.868,1.03,2.638,2.111,3.62c-4.146,2.901-4.953,6.459-3.059,10.548c-1.142,0-2.285,0-3.429,0
		c-0.066-12.14-0.021-24.28-0.247-36.418c-0.098-5.326,0.235-10.465,3.547-15.24c1.076-1.554,1.719-3.339,1.629-5.21
		c-0.1-2.13,1.337-2.832,3.712-2.817c5.498,0.032,10.997-0.03,16.497,0.008c4.954,0.035,4.819,0.096,5.912,4.384
		c0.534,2.102,1.563,4.137,2.571,6.133c0.939,1.853,1.804,3.661,1.788,5.727c-0.106,14.494-0.163,28.987-0.236,43.482
		C168.834,430.508,167.135,430.495,165.436,430.48z M160.71,395.851c1.716-0.028,2.919-0.616,3.003-2.203
		c0.082-1.575-0.979-2.361-2.74-2.384c-5.003-0.062-10.006-0.053-15.009-0.021c-1.691,0.009-2.936,0.572-2.998,2.185
		c-0.075,1.955,1.474,2.409,3.384,2.442c2.394,0.043,4.788,0.011,7.181,0.011c0-0.007,0-0.014,0-0.021
		C155.922,395.86,158.317,395.89,160.71,395.851z M157.299,377.613c-0.007-2.25-1.746-3.267-4.146-3.152
		c-2.193,0.104-4.461,0.861-4.3,3.138c0.142,2.028,1.934,3.044,4.475,3.279C155.636,380.699,157.308,379.846,157.299,377.613z"/>
	<path fill-rule="evenodd" clip-rule="evenodd" fill="#FEE99D" d="M123.201,430.472c4.768-6.967,3.689-11.042-4.116-15.549
		c2.081-1.258,4.229-2.474,4.824-4.856c-7.899,0.289-7.899,0.289-8.094,4.639c-4.983-1.112-9.053,0.431-12.771,2.99
		c-1.224-0.387-2.433-0.814-3.683-1.131c-0.327-0.082-0.784,0.186-1.214,0.301c-0.314,1.799,1.49,2.413,2.758,3.324
		c-5.66,2.928-6.131,4.328-3.439,10.234c-1.196,0.036-2.387,0.074-3.576,0.111c-0.079-12.507-0.085-25.016-0.269-37.521
		c-0.078-5.306-0.029-10.523,3.535-15.235c0.835-1.104,1.081-2.38,0.956-3.668c-0.264-2.727,1.554-3.386,4.457-3.341
		c5.279,0.086,10.563-0.014,15.843,0.028c4.906,0.04,4.956,0.071,5.769,4.399c0.347,1.843,1.422,3.415,2.353,5.047
		c1.228,2.157,2.09,4.363,2.075,6.79c-0.088,14.498-0.142,28.998-0.204,43.5C126.672,430.514,124.936,430.492,123.201,430.472z
		 M118.547,395.843c1.711-0.033,2.909-0.623,2.979-2.216c0.069-1.586-1.015-2.342-2.765-2.362
		c-5.001-0.061-10.004-0.052-15.003-0.021c-1.708,0.011-2.918,0.606-2.979,2.207c-0.062,1.58,1.018,2.321,2.766,2.37
		c2.605,0.074,5.218,0.021,7.828,0.021c0,0.003,0,0.008,0,0.014C113.764,395.855,116.157,395.888,118.547,395.843z M111.064,380.812
		c2.475,0.038,4.042-1.03,4.074-3.234c0.028-1.981-1.478-2.977-3.575-3.103c-2.376-0.143-4.182,0.701-4.369,2.562
		C107.099,379.626,108.566,380.776,111.064,380.812z"/>
	<path fill-rule="evenodd" clip-rule="evenodd" fill="#F3A762" d="M141.849,419.928c-4.146,2.901-4.953,6.459-3.059,10.548
		c8.881,0,17.762,0.003,26.642,0.004c0.481-0.815,1.034-1.607,1.428-2.449c2.852-6.077,1.108-9.726-6.096-12.857
		c-1.034-0.283-2.477,1.094-3.183-0.532c-4.672-1.08-8.483,0.859-12.407,2.396C145.249,418.919,145.497,420.942,141.849,419.928z"/>
	<path fill-rule="evenodd" clip-rule="evenodd" fill="#F3A762" d="M115.815,414.706c-4.983-1.112-9.053,0.431-12.771,2.988
		c-0.046,1.219,0.266,2.646-2.139,2.496c-5.66,2.928-6.131,4.328-3.439,10.234c8.575,0.016,17.154,0.032,25.733,0.048
		c4.769-6.967,3.69-11.042-4.105-15.55C117.981,415.125,116.845,415.472,115.815,414.706z"/>
	<path fill-rule="evenodd" clip-rule="evenodd" fill="#E7E2DC" d="M329.128,430.508c-0.046-0.371-0.096-0.741-0.145-1.112
		c-9.318-0.794-16.523-4.938-23.188-9.936c-1.001-0.751-1.591-1.688-1.743-2.803c-4.123-0.165-7.563-2.618-11.802-2.388
		c-0.616,5.41-0.386,10.825-0.122,16.238C304.462,430.508,316.795,430.508,329.128,430.508z"/>
	<path fill-rule="evenodd" clip-rule="evenodd" fill="#E7E2DC" d="M247.332,414.27c-0.614,5.41-0.386,10.825-0.121,16.238
		c10.195-0.008,20.393,0.016,30.589-0.053c2.309-0.015,4.827,0.567,6.789-1.064c0,0-0.532,0.076-0.534,0.076
		c-9.25-0.941-16.541-4.966-23.184-10.011c-0.994-0.755-1.588-1.69-1.741-2.805C255.006,416.499,251.57,414.039,247.332,414.27z"/>
	<path fill-rule="evenodd" clip-rule="evenodd" fill="#E7E2DC" d="M202.392,414.28c-0.583,5.408-0.387,10.819-0.107,16.231
		c10.198-0.011,20.398,0.013,30.596-0.056c2.308-0.015,4.829,0.567,6.791-1.064c0,0-0.532,0.076-0.534,0.076
		c-9.155-1.091-16.766-4.606-23.188-10.001c-0.948-0.797-1.584-1.698-1.739-2.814C210.082,416.504,206.642,414.024,202.392,414.28z"
		/>
	<path fill-rule="evenodd" clip-rule="evenodd" fill="#D1825F" d="M259.302,538.117c-2.156-1.964-4.399-3.865-6.436-5.909
		c-1.604-1.607-2.717-1.174-4.042,0.207c-1.857,1.935-3.841,3.786-5.771,5.673C248.468,538.095,253.886,538.107,259.302,538.117z"/>
	<path fill-rule="evenodd" clip-rule="evenodd" fill="#D1825F" d="M217.079,538.116c-1.229-2.768-3.893-4.641-6.087-7.147
		c-2.688,2.587-5.086,4.893-7.485,7.197C208.031,538.15,212.557,538.132,217.079,538.116z"/>
	<path fill-rule="evenodd" clip-rule="evenodd" fill="#D1825F" d="M150.932,538.158c-4.651-4.115-4.651-4.115-9.479,0.03
		C144.612,538.179,147.771,538.168,150.932,538.158z"/>
	<path fill-rule="evenodd" clip-rule="evenodd" fill="#799A5F" d="M116.575,507.7c3.308-0.839,7.479-3.132,9.747-2.218
		c4.9,1.977,7.261-2.357,11.237-1.791c1.579,0.224,1.623-1.289,1.814-2.375c0.5-2.825,1.136-5.631,1.716-8.444
		c-4.532-0.984-6.733,1.716-9.143,3.991c-1.12,1.06-1.791,2.656-4.014,1.17c-0.862-0.576-1.545,0.131-2.248,0.541
		C121.644,500.942,117.135,502.978,116.575,507.7z"/>
	<path fill-rule="evenodd" clip-rule="evenodd" fill="#799A5F" d="M302.115,500.045c0.302,2.066,0.602,4.134,1.016,6.985
		c1.138-2.52,3.485-2.622,5.488-3.259c2.242-2.367,5.342-4.197,6.568-7.192c0.544-1.335,1.595-2.897,0.17-3.992
		c-1.521-1.168-3.31-0.046-4.628,0.738c-2.086,1.243-3.947,2.739-5.901,4.131c-0.148,0.274-0.345,0.523-0.589,0.746
		C304.046,499.22,303.353,499.844,302.115,500.045z"/>
	<path fill-rule="evenodd" clip-rule="evenodd" fill="#799A5F" d="M235.468,500.096c-1.523-3.624-4.116-6.579-8.015-8.723
		c-1.481,0.271-2.387,1-2.645,2.249c1.718,3.909,1.917,8.454,6.809,11.037c1.399,0.739,2.504,1.719,3.047,3.956
		c0.929-3.295,1.563-5.541,2.967-7.571C236.638,501.146,235.832,500.961,235.468,500.096z"/>
	<path fill-rule="evenodd" clip-rule="evenodd" fill="#799A5F" d="M236.016,486.391c1.262,0.313,2.771,0.367,3.738,0.99
		c3.152,2.029,1.303-1.103,2.185-1.346c-0.658-2.555,0.034-5.008,1.086-7.575c-2.26,0.117-1.767,1.936-3.248,2.761
		c-1.905-1.151-3.844-2.518-6.015-3.558c-1.226-0.587-2.934-1.415-4.275-0.38c-1.438,1.109-0.159,2.332,0.462,3.449
		C231.278,483.121,233.857,484.604,236.016,486.391z"/>
	<path fill-rule="evenodd" clip-rule="evenodd" fill="#799A5F" d="M163.681,485.042c2.097,1.813,4.573,0.72,6.92,0.61
		c2.48-1.71,5.401-3.042,7.067-5.448c1.158-1.678,0.268-2.908-2.078-2.627c-1.895,0.227-4.049,0.568-5.477,1.497
		c-2.205,1.435-3.676,0.328-5.386-0.532C164.356,480.845,164.018,482.945,163.681,485.042z"/>
	<path fill-rule="evenodd" clip-rule="evenodd" fill="#799A5F" d="M286.987,485.219c1.712-0.475,3.424-0.95,5.137-1.424
		c1.472-1.752,3.021-3.464,4.382-5.272c0.662-0.878,1.346-2.027,0.117-2.92c-1.112-0.807-2.466-0.37-3.675,0.055
		c-2.271,0.801-3.769,2.383-5.497,3.738c-1.291,1.011-1.803,0.041-2.947-1.623c0,2.871,0,4.894,0.002,6.916l-0.003,0.056
		C285.327,484.903,286.157,485.061,286.987,485.219z"/>
	<path fill-rule="evenodd" clip-rule="evenodd" fill="#799A5F" d="M192.431,485.286c1.537,0.421,3.073,0.844,4.61,1.267
		c0.569-1.991,0.559-3.981-0.039-5.968l0.071,0.057c-2.99-0.834-4.227-3.71-7.394-4.318c-1.225-0.237-2.541-1.082-3.708-0.205
		c-1.268,0.948-0.158,1.989,0.266,2.959C187.402,481.75,190.134,483.374,192.431,485.286z"/>
	<path fill-rule="evenodd" clip-rule="evenodd" fill="#799A5F" d="M197.002,480.584c0.293-0.214,0.768-0.39,0.843-0.646
		c0.13-0.444-0.226-0.603-0.467-0.281c-0.205,0.274-0.212,0.65-0.305,0.983L197.002,480.584z"/>
	<path fill-rule="evenodd" clip-rule="evenodd" fill="#799A5F" d="M259.892,495.808c0.483,0.54,1.005,1.042,1.915,1.061
		l-0.104,0.084c0.119-0.382,0.239-0.764,0.359-1.147C261.342,495.805,260.615,495.808,259.892,495.808z"/>
	<path fill-rule="evenodd" clip-rule="evenodd" fill="#799A5F" d="M261.807,496.869c0.274,1.596,0.678,3.185,0.775,4.789
		c0.074,1.217-0.238,2.453-0.378,3.682c2.471-0.452,4.192,0.22,5.096,2.23c0.22,0.488,0.426,0.333,0.784-0.146
		c3.603-4.829,10.419-8.492,8.136-15.929c-5.524,1.139-7.805,4.706-9.71,8.307c-2.553-0.271-2.355-2.98-4.807-2.849L261.807,496.869
		z"/>
	<path fill-rule="evenodd" clip-rule="evenodd" fill="#799A5F" d="M164.257,509.573c5.744-1.816,10.507-4.395,11.648-10.186
		c-5.108-1.083-7.73,1.668-10.517,4.13c-0.158,1.251-1.348,1.751-2.47,2.297c-0.014,0.969-0.022,1.938-0.035,2.909
		C163.341,509.005,163.798,509.29,164.257,509.573z"/>
	<path fill-rule="evenodd" clip-rule="evenodd" fill="#799A5F" d="M191.606,503.134c-3.063-1.043-4.41-3.996-7.75-4.728
		c-1.245-0.273-2.633-0.774-3.628,0.239c-0.727,0.741-0.219,1.718-0.041,2.591c0.856,0.328,1.109,0.93,1.103,1.65
		c2.591,2.225,5.111,4.534,8.965,5.318c0.821-0.231,1.642-0.465,2.461-0.696c0.039-1.293,0.077-2.585,0.115-3.88
		C192.423,503.466,192.016,503.301,191.606,503.134z"/>
	<path fill-rule="evenodd" clip-rule="evenodd" fill="#D1825F" d="M181.29,502.887c0.007-0.721-0.246-1.322-1.103-1.65
		c-3.071,1.919-3.623,5.175-5.896,7.544c-1.396,1.456,0.178,2.323,1.666,2.724c2.914,0.785,6.613-1.895,5.99-4.431
		C181.605,505.674,181.118,504.327,181.29,502.887z"/>
	<path fill-rule="evenodd" clip-rule="evenodd" fill="#D1825F" d="M302.115,500.045c1.237-0.201,1.931-0.825,2.124-1.843
		c-2.103-1.298-2.042-4.047-5.289-5.091C298.834,495.967,300.771,497.923,302.115,500.045z"/>
	<path fill-rule="evenodd" clip-rule="evenodd" fill="#D1825F" d="M235.468,500.096c0.364,0.865,1.17,1.05,2.163,0.948
		c1.472-1.075,2.689-2.298,3.37-3.841c-0.257-0.204-0.511-0.409-0.763-0.616C237.699,496.883,237.112,498.976,235.468,500.096z"/>
	<path fill-rule="evenodd" clip-rule="evenodd" fill="#D1825F" d="M286.987,485.219c-0.83-0.158-1.66-0.316-2.484-0.475
		c-0.266,0.861-0.714,2.166,0.246,2.433C286.432,487.643,286.627,486.205,286.987,485.219z"/>
	<path fill-rule="evenodd" clip-rule="evenodd" fill="#D1825F" d="M192.716,507.509c-0.819,0.231-1.64,0.465-2.461,0.696
		c0.439,0.878,0.639,2.349,2.126,1.93C193.752,509.75,192.979,508.443,192.716,507.509z"/>
	<path fill-rule="evenodd" clip-rule="evenodd" fill="#D1825F" d="M162.919,505.814c1.122-0.546,2.312-1.046,2.47-2.297
		C161.476,502.026,162.635,504.241,162.919,505.814z"/>
	<path fill-rule="evenodd" clip-rule="evenodd" fill="#D1825F" d="M164.257,509.573c-0.459-0.283-0.916-0.567-1.373-0.85
		c-0.218,0.832-0.78,2.004,0.308,2.333C164.25,511.377,164.135,510.216,164.257,509.573z"/>
	<path fill-rule="evenodd" clip-rule="evenodd" fill="#D1825F" d="M194.154,497.783c-0.651,0.438-1.408,1.203-0.627,1.589
		c1.015,0.5,0.987-0.568,1.204-1.108C194.532,498.106,194.339,497.949,194.154,497.783z"/>
	<path fill-rule="evenodd" clip-rule="evenodd" fill="#D1825F" d="M160.987,499.367c0.238,0.533,0.215,1.604,1.235,1.094
		c0.771-0.385,0.031-1.161-0.596-1.619C161.419,499.021,161.207,499.197,160.987,499.367z"/>
	<path fill-rule="evenodd" clip-rule="evenodd" fill="#D1825F" d="M191.606,503.134c0.409,0.167,0.816,0.332,1.225,0.495
		c0.148-0.594,0.615-1.382-0.42-1.589C191.771,501.912,191.649,502.64,191.606,503.134z"/>
	<path fill-rule="evenodd" clip-rule="evenodd" fill="#D1825F" d="M241.001,497.204c0.368-0.35,0.921-0.718,0.116-1.095
		c-0.138-0.064-0.577,0.309-0.877,0.479C240.49,496.794,240.744,497,241.001,497.204z"/>
	<path fill-rule="evenodd" clip-rule="evenodd" fill="#D1825F" d="M194.731,498.263c0.09-0.237,0.181-0.474,0.271-0.71
		c-0.282,0.078-0.563,0.155-0.848,0.229C194.339,497.949,194.532,498.106,194.731,498.263z"/>
	<path fill-rule="evenodd" clip-rule="evenodd" fill="#D1825F" d="M161.627,498.841c-0.311-0.084-0.621-0.166-0.929-0.249
		c0.1,0.257,0.196,0.516,0.291,0.773C161.207,499.197,161.419,499.021,161.627,498.841z"/>
	<path fill-rule="evenodd" clip-rule="evenodd" fill="#7AC0E5" d="M202.107,390.985c-0.199-4.985,0.503-9.684,3.539-14.081
		c0.967-1.399,1.827-2.935,1.703-4.614c-0.19-2.561,1.63-2.903,4.133-2.876c5.92,0.064,11.848,0.146,17.76-0.03
		c3.499-0.104,5.182,0.641,5.104,3.838c-0.062,2.354,1.961,4.354,3.036,6.516c0.91,1.833,2.01,3.581,1.985,5.666
		c-0.119,10.294-0.166,20.587-0.237,30.88c-5.705,0.095-10.831-0.458-13.506-5.64c-1.021-1.979-3.611-3.003-6.458-2.666
		c-0.266,0.474-0.626,0.803-0.573,1.076c0.31,1.605,3.966,2.91,1.46,4.563c-2.049,1.352-3.012-2.133-5.256-2.061
		c-1.6,1.681,1.659,3.587-0.588,5.095c-4.128-0.146-7.568-2.626-11.818-2.37C202.317,406.515,202.418,398.745,202.107,390.985z
		 M228.297,395.749c2.135-0.006,3.176-0.896,3.189-2.662c0.014-1.754-0.979-2.704-3.127-2.713c-5.024-0.02-10.055-0.018-15.08-0.002
		c-2.115,0.008-3.203,0.897-3.208,2.665c-0.007,1.743,0.998,2.688,3.146,2.704c2.403,0.021,4.808,0.005,7.21,0.005
		C223.051,395.751,225.674,395.756,228.297,395.749z"/>
	<path fill-rule="evenodd" clip-rule="evenodd" fill="#7AC0E5" d="M247.064,392.061c-0.219-5.51,0.249-10.792,3.81-15.653
		c0.893-1.219,1.566-2.618,1.417-4.119c-0.259-2.583,1.624-2.9,4.116-2.873c5.919,0.06,11.846,0.146,17.761-0.032
		c3.508-0.105,5.16,0.656,5.1,3.841c-0.044,2.352,1.954,4.358,3.055,6.513c0.937,1.828,1.992,3.581,1.968,5.666
		c-0.126,10.294-0.17,20.588-0.241,30.88c-5.709,0.095-10.828-0.472-13.507-5.646c-1.022-1.978-3.613-3.006-6.462-2.656
		c-0.264,0.479-0.624,0.81-0.565,1.082c0.329,1.6,3.975,2.907,1.453,4.56c-2.035,1.334-3.003-2.144-5.239-2.081
		c-1.597,1.697,1.659,3.603-0.599,5.11c-4.124-0.152-7.56-2.612-11.798-2.381C247.261,406.867,247.357,399.458,247.064,392.061z
		 M258.208,390.37c-2.119,0.016-3.195,0.9-3.2,2.666c-0.007,1.742,0.985,2.699,3.137,2.707c5.023,0.015,10.048,0.014,15.072,0.006
		c2.133-0.003,3.176-0.896,3.187-2.662c0.014-1.751-0.978-2.693-3.124-2.713c-2.621-0.022-5.242-0.005-7.863-0.005
		C263.013,390.365,260.611,390.353,258.208,390.37z"/>
	<path fill-rule="evenodd" clip-rule="evenodd" fill="#7AC0E5" d="M291.981,392.052c-0.217-5.51,0.247-10.793,3.829-15.65
		c0.896-1.213,1.587-2.612,1.427-4.117c-0.278-2.6,1.634-2.892,4.114-2.868c5.921,0.057,11.85,0.15,17.766-0.035
		c3.533-0.111,5.138,0.694,5.089,3.855c-0.036,2.352,1.963,4.356,3.057,6.515c0.927,1.83,1.976,3.59,1.951,5.676
		c-0.124,10.295-0.171,20.591-0.243,30.887c-5.685,0.029-10.841-0.5-13.511-5.685c-1.02-1.98-3.613-3.005-6.471-2.641
		c-0.255,0.484-0.606,0.818-0.549,1.093c0.348,1.586,3.993,2.897,1.39,4.541c-1.934,1.221-2.709-1.916-4.967-2.186
		c-2.202,1.475,1.583,3.792-0.811,5.219c-4.123-0.163-7.563-2.616-11.802-2.386C292.179,406.865,292.277,399.454,291.981,392.052z
		 M317.714,395.774c2.348,0.009,3.724-0.754,3.624-2.871c-0.085-1.82-1.298-2.541-3.356-2.544
		c-4.807-0.007-9.615-0.005-14.424-0.016c-2.348-0.006-3.705,0.757-3.627,2.878c0.085,2.251,1.874,2.563,4.016,2.563
		c2.187,0,4.371,0,6.556,0c0-0.003,0-0.008,0-0.012C312.906,395.773,315.311,395.765,317.714,395.774z"/>
	<path fill-rule="evenodd" clip-rule="evenodd" fill="#FBFCFC" d="M239.131,416.283c-5.705,0.095-10.831-0.458-13.506-5.64
		c-1.021-1.979-3.611-3.003-6.458-2.666c-0.266,0.474-0.626,0.803-0.573,1.076c0.31,1.605,3.966,2.91,1.46,4.563
		c-2.049,1.352-3.012-2.133-5.256-2.061c-1.6,1.681,1.659,3.587-0.588,5.095c0.155,1.118,0.791,2.02,1.739,2.816
		c6.422,5.395,14.032,8.91,23.188,10.001C239.628,425.072,239.632,420.678,239.131,416.283z"/>
	<path fill-rule="evenodd" clip-rule="evenodd" fill="#FBFCFC" d="M328.971,416.314c-5.685,0.029-10.841-0.5-13.511-5.685
		c-1.02-1.98-3.613-3.005-6.471-2.641c-0.255,0.484-0.606,0.818-0.549,1.093c0.348,1.586,3.993,2.897,1.39,4.541
		c-1.934,1.221-2.709-1.916-4.967-2.186c-2.202,1.475,1.583,3.792-0.811,5.219c0.152,1.117,0.742,2.054,1.743,2.805
		c6.664,4.998,13.869,9.142,23.188,9.936C329.435,425.037,329.449,420.674,328.971,416.314z"/>
	<path fill-rule="evenodd" clip-rule="evenodd" fill="#FBFCFC" d="M284.049,416.283c-5.709,0.095-10.828-0.472-13.507-5.646
		c-1.022-1.978-3.613-3.006-6.462-2.656c-0.264,0.479-0.624,0.81-0.565,1.082c0.329,1.6,3.975,2.907,1.453,4.56
		c-2.035,1.334-3.003-2.144-5.239-2.081c-1.597,1.697,1.659,3.603-0.599,5.11c0.153,1.115,0.747,2.051,1.741,2.806
		c6.643,5.045,13.934,9.069,23.184,10.011C284.546,425.072,284.55,420.678,284.049,416.283z"/>
	<path fill-rule="evenodd" clip-rule="evenodd" fill="#FBFCFC" d="M153.53,395.86c2.392,0,4.787,0.03,7.18-0.009
		c1.716-0.028,2.919-0.616,3.003-2.203c0.082-1.575-0.979-2.361-2.74-2.384c-5.003-0.062-10.006-0.053-15.009-0.021
		c-1.691,0.009-2.936,0.572-2.998,2.185c-0.075,1.955,1.474,2.409,3.384,2.442c2.394,0.043,4.788,0.011,7.181,0.011
		C153.53,395.874,153.53,395.867,153.53,395.86z"/>
	<path fill-rule="evenodd" clip-rule="evenodd" fill="#EEEBEC" d="M153.328,380.877c2.308-0.179,3.979-1.031,3.971-3.265
		c-0.007-2.25-1.746-3.267-4.146-3.152c-2.193,0.104-4.461,0.861-4.3,3.138C148.995,379.626,150.787,380.642,153.328,380.877z"/>
	<path fill-rule="evenodd" clip-rule="evenodd" fill="#799A5F" d="M157.581,414.641c0.706,1.626,2.148,0.249,3.183,0.532
		c1.969-1.515,4.816-2.495,4.994-5.187c-2.729-1.09-4.218,1.048-6.354,1.178C158.092,411.243,158.079,411.466,157.581,414.641z"/>
	<path fill-rule="evenodd" clip-rule="evenodd" fill="#799A5F" d="M141.849,419.928c3.648,1.014,3.4-1.009,3.325-2.892
		c-1.846,0.04-3.514-1.149-5.437-0.729C139.184,418.176,140.768,418.946,141.849,419.928z"/>
	<path fill-rule="evenodd" clip-rule="evenodd" fill="#FBFCFC" d="M111.373,395.855c2.391,0,4.784,0.033,7.174-0.012
		c1.711-0.033,2.909-0.623,2.979-2.216c0.069-1.586-1.015-2.342-2.765-2.362c-5.001-0.061-10.004-0.052-15.003-0.021
		c-1.708,0.011-2.918,0.606-2.979,2.207c-0.062,1.58,1.018,2.321,2.766,2.37c2.605,0.074,5.218,0.021,7.828,0.021
		C111.373,395.844,111.373,395.849,111.373,395.855z"/>
	<path fill-rule="evenodd" clip-rule="evenodd" fill="#EEEBEC" d="M107.194,377.037c-0.096,2.59,1.372,3.739,3.87,3.775
		c2.475,0.038,4.042-1.03,4.074-3.234c0.028-1.981-1.478-2.977-3.575-3.103C109.188,374.333,107.382,375.176,107.194,377.037z"/>
	<path fill-rule="evenodd" clip-rule="evenodd" fill="#799A5F" d="M115.815,414.706c1.029,0.767,2.166,0.42,3.279,0.217
		c2.071-1.257,4.22-2.473,4.814-4.855C116.01,410.356,116.01,410.356,115.815,414.706z"/>
	<path fill-rule="evenodd" clip-rule="evenodd" fill="#799A5F" d="M100.906,420.19c2.404,0.15,2.093-1.277,2.139-2.496
		c-1.224-0.385-2.433-0.813-3.683-1.129c-0.327-0.082-0.784,0.186-1.214,0.301C97.834,418.665,99.639,419.279,100.906,420.19z"/>
	<path fill-rule="evenodd" clip-rule="evenodd" fill="#FBFCFC" d="M220.428,395.749c2.623,0.003,5.246,0.008,7.869,0
		c2.135-0.006,3.176-0.896,3.189-2.662c0.014-1.754-0.979-2.704-3.127-2.713c-5.024-0.02-10.055-0.018-15.08-0.002
		c-2.115,0.008-3.203,0.897-3.208,2.665c-0.007,1.743,0.998,2.688,3.146,2.704C215.621,395.761,218.025,395.746,220.428,395.749z"/>
	<path fill-rule="evenodd" clip-rule="evenodd" fill="#FBFCFC" d="M265.416,390.367c-2.403-0.002-4.805-0.014-7.208,0.003
		c-2.119,0.016-3.195,0.9-3.2,2.666c-0.007,1.742,0.985,2.699,3.137,2.707c5.023,0.015,10.048,0.014,15.072,0.006
		c2.133-0.003,3.176-0.896,3.187-2.662c0.014-1.751-0.978-2.693-3.124-2.713C270.658,390.351,268.037,390.369,265.416,390.367z"/>
	<path fill-rule="evenodd" clip-rule="evenodd" fill="#FBFCFC" d="M310.502,395.773c2.404,0,4.809-0.008,7.212,0.001
		c2.348,0.009,3.724-0.754,3.624-2.871c-0.085-1.82-1.298-2.541-3.356-2.544c-4.807-0.007-9.615-0.005-14.424-0.016
		c-2.348-0.006-3.705,0.757-3.627,2.878c0.085,2.251,1.874,2.563,4.016,2.563c2.187,0,4.371,0,6.556,0
		C310.502,395.782,310.502,395.777,310.502,395.773z"/>
</g>
<g>
	<path fill-rule="evenodd" clip-rule="evenodd" fill="#3EBFB7" d="M320.819,155.538c0.006-0.464,0.019-0.928,0.019-1.396
		c0-21.822-6.147-42.208-16.796-59.529c-5.296-27.3-13.017-71.568-7.866-73.811c0,0-13.082,5.112-34.117,9.55
		c-14.289-5.914-33.685-9.55-55.051-9.55c-22.462,0-42.746,4.019-57.207,10.479c-10.777-2.369-21.687-5.609-32.552-9.928
		c0,0-2.571,44.361-6.846,72.575c-10.91,17.467-17.222,38.102-17.222,60.212c0,0.843,0.013,1.681,0.031,2.518
		c-7.056,11.789-10.984,24.866-10.984,38.632c0,52.007,56.024,94.167,125.134,94.167c69.108,0,125.132-42.16,125.132-94.167
		C332.494,181.086,328.306,167.617,320.819,155.538z"/>
	<circle fill-rule="evenodd" clip-rule="evenodd" fill="#FFFFFF" cx="169.87" cy="105.54" r="35.308"/>
	<circle fill-rule="evenodd" clip-rule="evenodd" fill="#FFFFFF" cx="250.559" cy="105.54" r="35.309"/>
	<circle fill-rule="evenodd" clip-rule="evenodd" cx="169.895" cy="105.54" r="17.418"/>
	<circle fill-rule="evenodd" clip-rule="evenodd" cx="250.558" cy="105.54" r="17.418"/>
	<path fill-rule="evenodd" clip-rule="evenodd" fill="#F9B04E" d="M230.751,160.315c0-14.477-10.472-26.212-23.389-26.212
		s-23.389,11.735-23.389,26.212c0,6.623,2.196,12.667,5.811,17.281c1.977,8.897,9.096,15.486,17.578,15.486
		c8.483,0,15.604-6.59,17.579-15.487C228.555,172.98,230.751,166.937,230.751,160.315z"/>
	<path fill="#F9B04E" d="M148.374,210.978c0-30.595-20.555-56.373-48.604-64.326c-11.589,14.279-18.27,31.06-18.27,49.015
		c0,27.234,15.37,51.764,39.931,68.956C137.783,252.432,148.374,232.941,148.374,210.978z"/>
	<path fill="#F9B04E" d="M333.029,203.796c2.473-22.794-6.094-44.861-22.328-63.05c-23.443,8.32-41.293,29.451-44.156,55.839
		c-2.861,26.39,10.039,50.853,31.152,64.009C317.457,246.311,330.556,226.595,333.029,203.796z"/>
	<g>
		<path fill="#F9B04E" d="M150.218,291.842c0-2.248,0.423-4.396,1.186-6.374c-3.291,3.269-5.313,7.519-5.39,12.177
			c1.328-1.111,2.87-1.92,4.543-2.35C150.336,294.178,150.218,293.024,150.218,291.842z"/>
		<path fill="#F9B04E" d="M185.337,295.293c1.673,0.432,3.215,1.238,4.542,2.35c-0.075-4.658-2.098-8.908-5.39-12.176
			c0.765,1.979,1.187,4.127,1.187,6.375C185.676,293.024,185.558,294.178,185.337,295.293z"/>
		<path fill="#F9B04E" d="M174.914,297.645h0.411c2.025-1.698,4.545-2.705,7.276-2.705c0.942,0,1.856,0.129,2.735,0.354
			c0.221-1.115,0.339-2.27,0.339-3.451c0-2.248-0.422-4.396-1.187-6.375c-2.199-2.184-4.969-3.925-8.106-5.059
			c1.961,2.079,3.166,4.877,3.166,7.959C179.549,292.161,177.729,295.528,174.914,297.645z"/>
		<path fill="#F9B04E" d="M156.345,288.368c0-3.082,1.204-5.88,3.164-7.958c-3.136,1.133-5.906,2.875-8.105,5.059
			c-0.763,1.979-1.186,4.126-1.186,6.374c0,1.182,0.118,2.336,0.339,3.453c0.881-0.227,1.794-0.355,2.735-0.355
			c2.732,0,5.252,1.007,7.278,2.705h0.409C158.165,295.528,156.345,292.161,156.345,288.368z"/>
		<path fill="#F9B04E" d="M167.947,299.969c2.614,0,5.027-0.865,6.967-2.324h-13.935
			C162.92,299.104,165.332,299.969,167.947,299.969z"/>
		<path fill="#F9B04E" d="M160.979,297.645h13.935c2.814-2.117,4.635-5.484,4.635-9.277c0-3.082-1.205-5.88-3.166-7.959
			c-2.596-0.938-5.444-1.461-8.436-1.461c-2.992,0-5.841,0.523-8.438,1.462c-1.96,2.078-3.164,4.876-3.164,7.958
			C156.345,292.161,158.165,295.528,160.979,297.645z"/>
	</g>
	<g>
		<path fill="#F9B04E" d="M234.954,291.842c0-2.248,0.423-4.396,1.185-6.374c-3.291,3.269-5.312,7.519-5.388,12.177
			c1.327-1.111,2.869-1.92,4.542-2.35C235.072,294.178,234.954,293.024,234.954,291.842z"/>
		<path fill="#F9B04E" d="M270.073,295.293c1.672,0.432,3.215,1.238,4.542,2.35c-0.075-4.658-2.098-8.908-5.39-12.176
			c0.764,1.979,1.187,4.127,1.187,6.375C270.412,293.024,270.294,294.178,270.073,295.293z"/>
		<path fill="#F9B04E" d="M259.649,297.645h0.411c2.026-1.698,4.545-2.705,7.277-2.705c0.941,0,1.855,0.129,2.735,0.354
			c0.221-1.115,0.339-2.27,0.339-3.451c0-2.248-0.423-4.396-1.187-6.375c-2.2-2.184-4.97-3.925-8.106-5.059
			c1.96,2.079,3.165,4.877,3.165,7.959C264.284,292.161,262.465,295.528,259.649,297.645z"/>
		<path fill="#F9B04E" d="M241.081,288.368c0-3.082,1.204-5.88,3.164-7.958c-3.137,1.133-5.907,2.875-8.106,5.059
			c-0.762,1.979-1.185,4.126-1.185,6.374c0,1.182,0.118,2.336,0.339,3.453c0.88-0.227,1.794-0.355,2.735-0.355
			c2.732,0,5.252,1.007,7.277,2.705h0.409C242.901,295.528,241.081,292.161,241.081,288.368z"/>
		<path fill="#F9B04E" d="M252.683,299.969c2.615,0,5.027-0.865,6.967-2.324h-13.935
			C247.655,299.104,250.067,299.969,252.683,299.969z"/>
		<path fill="#F9B04E" d="M245.715,297.645h13.935c2.815-2.117,4.635-5.484,4.635-9.277c0-3.082-1.205-5.88-3.165-7.959
			c-2.597-0.938-5.444-1.461-8.436-1.461c-2.992,0-5.841,0.523-8.438,1.462c-1.96,2.078-3.164,4.876-3.164,7.958
			C241.081,292.161,242.901,295.528,245.715,297.645z"/>
	</g>
</g>
</svg>
